<svg width="25" height="25" viewBox="0 0 25 25" fill="none" xmlns="http://www.w3.org/2000/svg">
<path fill-rule="evenodd" clip-rule="evenodd" d="M6.8286 14.5175L11.8419 17.266C12.0479 17.379 12.2739 17.4355 12.4999 17.4355C12.7259 17.4355 12.952 17.379 13.158 17.266L18.1713 14.5175C18.6011 14.2818 18.8682 13.8339 18.8682 13.3485V7.58691C18.8682 7.10155 18.6011 6.65366 18.1713 6.41799L13.158 3.66944C12.7459 3.44352 12.2539 3.44352 11.8418 3.66944L6.8286 6.41799C6.39866 6.65366 6.1316 7.10155 6.1316 7.58691V13.3485C6.13164 13.8338 6.39871 14.2818 6.8286 14.5175ZM18.224 13.3485C18.224 13.6031 18.0839 13.838 17.8584 13.9617L12.8451 16.7102C12.629 16.8287 12.3709 16.8287 12.1547 16.7102L7.14149 13.9617C6.916 13.838 6.7759 13.6031 6.7759 13.3485V7.58691C6.7759 7.56741 6.77697 7.54809 6.7786 7.52889L12.1778 10.489V15.543C12.1778 15.7186 12.322 15.8609 12.4999 15.8609C12.6778 15.8609 12.8221 15.7186 12.8221 15.543V10.489L18.2213 7.52889C18.2229 7.54809 18.224 7.56741 18.224 7.58691V13.3485ZM12.1548 4.2252C12.2628 4.16595 12.3814 4.13632 12.4999 4.13632C12.6185 4.13632 12.7371 4.16595 12.8451 4.2252L17.8584 6.97376C17.8642 6.97696 17.8698 6.98038 17.8754 6.9838L17.8818 6.98766L12.4999 9.93835L7.11799 6.9877L7.12514 6.98338C7.13052 6.9801 7.1359 6.97683 7.14145 6.9738L12.1548 4.2252Z" fill="#2E2A2A"/>
<path d="M19.9446 11.0793C19.7724 11.005 19.5654 11.0692 19.4821 11.2228C19.3988 11.3763 19.4708 11.5609 19.6429 11.6352C21.6837 12.5158 22.8075 13.6602 22.8075 14.8576C22.8075 16.0214 21.7525 16.9112 20.8674 17.4527C20.7097 17.5492 20.6696 17.7414 20.7778 17.882C20.8449 17.9693 20.9533 18.0161 21.0636 18.0161C21.1311 18.0161 21.1993 17.9986 21.2592 17.9619C22.7251 17.065 23.5 15.9915 23.5 14.8576C23.5 13.4105 22.2373 12.0687 19.9446 11.0793Z" fill="#2E2A2A"/>
<path d="M16.4076 18.4021L19.7337 18.7179C19.8645 18.7304 19.9748 18.8226 20.0125 18.951C20.0501 19.0794 20.0075 19.2182 19.9049 19.3019L17.2943 21.4282C17.235 21.4765 17.164 21.5 17.0935 21.5C16.9989 21.5 16.9052 21.4577 16.8416 21.3764C16.7306 21.2346 16.7534 21.0278 16.8924 20.9146L18.1327 19.9043C16.4385 20.4162 14.5131 20.6842 12.4934 20.6842C9.59542 20.6842 6.86579 20.1247 4.80735 19.1086C2.67458 18.0558 1.5 16.6279 1.5 15.088C1.5 13.5559 2.66436 12.1331 4.77866 11.0817C4.93846 11.0022 5.13136 11.0699 5.2093 11.2331C5.28724 11.3962 5.22081 11.5929 5.06089 11.6724C3.18002 12.6077 2.14415 13.8207 2.14415 15.088C2.14415 16.3622 3.1896 17.58 5.08794 18.5171C7.06062 19.4908 9.69063 20.0271 12.4934 20.0271C14.517 20.0271 16.4376 19.7502 18.1105 19.2238L16.3478 19.0564C16.1707 19.0396 16.0405 18.8795 16.057 18.6988C16.0735 18.5181 16.2304 18.3853 16.4076 18.4021Z" fill="#2E2A2A"/>
<path fill-rule="evenodd" clip-rule="evenodd" d="M6.8286 14.5175L11.8419 17.266C12.0479 17.379 12.2739 17.4355 12.4999 17.4355C12.7259 17.4355 12.952 17.379 13.158 17.266L18.1713 14.5175C18.6011 14.2818 18.8682 13.8339 18.8682 13.3485V7.58691C18.8682 7.10155 18.6011 6.65366 18.1713 6.41799L13.158 3.66944C12.7459 3.44352 12.2539 3.44352 11.8418 3.66944L6.8286 6.41799C6.39866 6.65366 6.1316 7.10155 6.1316 7.58691V13.3485C6.13164 13.8338 6.39871 14.2818 6.8286 14.5175ZM18.224 13.3485C18.224 13.6031 18.0839 13.838 17.8584 13.9617L12.8451 16.7102C12.629 16.8287 12.3709 16.8287 12.1547 16.7102L7.14149 13.9617C6.916 13.838 6.7759 13.6031 6.7759 13.3485V7.58691C6.7759 7.56741 6.77697 7.54809 6.7786 7.52889L12.1778 10.489V15.543C12.1778 15.7186 12.322 15.8609 12.4999 15.8609C12.6778 15.8609 12.8221 15.7186 12.8221 15.543V10.489L18.2213 7.52889C18.2229 7.54809 18.224 7.56741 18.224 7.58691V13.3485ZM12.1548 4.2252C12.2628 4.16595 12.3814 4.13632 12.4999 4.13632C12.6185 4.13632 12.7371 4.16595 12.8451 4.2252L17.8584 6.97376C17.8642 6.97696 17.8698 6.98038 17.8754 6.9838L17.8818 6.98766L12.4999 9.93835L7.11799 6.9877L7.12514 6.98338C7.13052 6.9801 7.1359 6.97683 7.14145 6.9738L12.1548 4.2252Z" stroke="black" stroke-width="0.5"/>
<path d="M19.9446 11.0793C19.7724 11.005 19.5654 11.0692 19.4821 11.2228C19.3988 11.3763 19.4708 11.5609 19.6429 11.6352C21.6837 12.5158 22.8075 13.6602 22.8075 14.8576C22.8075 16.0214 21.7525 16.9112 20.8674 17.4527C20.7097 17.5492 20.6696 17.7414 20.7778 17.882C20.8449 17.9693 20.9533 18.0161 21.0636 18.0161C21.1311 18.0161 21.1993 17.9986 21.2592 17.9619C22.7251 17.065 23.5 15.9915 23.5 14.8576C23.5 13.4105 22.2373 12.0687 19.9446 11.0793Z" stroke="black" stroke-width="0.5"/>
<path d="M16.4076 18.4021L19.7337 18.7179C19.8645 18.7304 19.9748 18.8226 20.0125 18.951C20.0501 19.0794 20.0075 19.2182 19.9049 19.3019L17.2943 21.4282C17.235 21.4765 17.164 21.5 17.0935 21.5C16.9989 21.5 16.9052 21.4577 16.8416 21.3764C16.7306 21.2346 16.7534 21.0278 16.8924 20.9146L18.1327 19.9043C16.4385 20.4162 14.5131 20.6842 12.4934 20.6842C9.59542 20.6842 6.86579 20.1247 4.80735 19.1086C2.67458 18.0558 1.5 16.6279 1.5 15.088C1.5 13.5559 2.66436 12.1331 4.77866 11.0817C4.93846 11.0022 5.13136 11.0699 5.2093 11.2331C5.28724 11.3962 5.22081 11.5929 5.06089 11.6724C3.18002 12.6077 2.14415 13.8207 2.14415 15.088C2.14415 16.3622 3.1896 17.58 5.08794 18.5171C7.06062 19.4908 9.69063 20.0271 12.4934 20.0271C14.517 20.0271 16.4376 19.7502 18.1105 19.2238L16.3478 19.0564C16.1707 19.0396 16.0405 18.8795 16.057 18.6988C16.0735 18.5181 16.2304 18.3853 16.4076 18.4021Z" stroke="black" stroke-width="0.5"/>
</svg>
