<svg width="25" height="25" viewBox="0 0 25 25" fill="none" xmlns="http://www.w3.org/2000/svg">
<path d="M18.9559 11.7574C19.2947 11.7574 19.5693 11.4828 19.5693 11.144C19.5693 10.8052 19.2947 10.5306 18.9559 10.5306H17.0803C16.7415 10.5306 16.4669 10.8052 16.4669 11.144V15.7716C16.4669 16.1104 16.7415 16.3851 17.0803 16.3851C17.4191 16.3851 17.6937 16.1104 17.6937 15.7716V14.0275H18.8069C19.1457 14.0275 19.4203 13.7528 19.4203 13.414C19.4203 13.0753 19.1457 12.8006 18.8069 12.8006H17.6937V11.7574H18.9559Z" fill="#2E2A2A"/>
<path fill-rule="evenodd" clip-rule="evenodd" d="M5.95654 10.5779H7.2546C8.33243 10.5779 9.20935 11.4432 9.20935 12.5069C9.20935 13.5705 8.33243 14.4359 7.2546 14.4359C7.09776 14.4359 6.82982 14.437 6.57901 14.4382V15.8531C6.57901 16.1919 6.30436 16.4665 5.96558 16.4665C5.6268 16.4665 5.35215 16.1919 5.35215 15.8531L5.34311 11.1933C5.34258 11.0302 5.40695 10.8737 5.52207 10.7582C5.63719 10.6428 5.79353 10.5779 5.95654 10.5779ZM6.57565 13.2114C6.82745 13.2101 7.09637 13.209 7.2546 13.209C7.64915 13.209 7.98245 12.8875 7.98245 12.5069C7.98245 12.1263 7.64911 11.8048 7.25456 11.8048H6.57177C6.57251 12.0777 6.5732 12.3681 6.5732 12.5069C6.5732 12.669 6.57435 12.9503 6.57565 13.2114Z" fill="#2E2A2A"/>
<path fill-rule="evenodd" clip-rule="evenodd" d="M11.191 10.5779H12.4722C13.9318 10.5779 14.9125 11.7334 14.9125 13.4532C14.9125 15.0893 13.9065 16.2944 12.5204 16.3186C12.1706 16.3247 11.3181 16.3281 11.2121 16.3285L11.2112 16.3285L11.2025 16.3286H11.2001C11.0383 16.3286 10.8829 16.2646 10.768 16.1505C10.6525 16.0359 10.5873 15.8801 10.5867 15.7174L10.5775 11.1925C10.5772 11.0296 10.6417 10.8732 10.7568 10.758C10.8719 10.6427 11.0281 10.5779 11.191 10.5779ZM11.8115 15.0986C12.0668 15.0969 12.3401 15.0947 12.499 15.0919C13.3187 15.0776 13.6857 14.2586 13.6857 13.4533C13.6857 13.0665 13.5982 11.8048 12.4722 11.8048H11.8055L11.8063 12.2823C11.8077 13.1435 11.8101 14.6679 11.8115 15.0986Z" fill="#2E2A2A"/>
<path fill-rule="evenodd" clip-rule="evenodd" d="M20.3106 7.96063H20.7604C21.7751 7.96063 22.6007 8.78619 22.6007 9.80092V17.1621C22.6007 18.1768 21.7751 19.0023 20.7604 19.0023H20.3106V21.1289C20.3106 22.1436 19.485 22.9692 18.4703 22.9692H6.52886C5.51412 22.9692 4.68857 22.1436 4.68857 21.1289V19.0023H4.23872C3.22399 19.0023 2.39844 18.1768 2.39844 17.1621V9.80092C2.39844 8.78619 3.22399 7.96063 4.23872 7.96063H4.68857V3.87111C4.68857 2.85638 5.51412 2.03082 6.52886 2.03082H14.6954C15.5335 2.03082 16.3447 2.37962 16.9213 2.98773L19.4693 5.67541C20.0118 6.24769 20.3106 6.9971 20.3106 7.78564V7.96063ZM6.52886 3.25768C6.19061 3.25768 5.91543 3.53286 5.91543 3.87111V7.96063H19.0837V7.78564C19.0837 7.31253 18.9045 6.86288 18.5789 6.51953L16.0309 3.83185C15.685 3.46694 15.1982 3.25768 14.6954 3.25768H6.52886ZM18.4703 21.7423C18.8085 21.7423 19.0837 21.4671 19.0837 21.1289V19.0023H5.91543V21.1289C5.91543 21.4671 6.19061 21.7423 6.52886 21.7423H18.4703ZM20.7604 17.7755C21.0986 17.7755 21.3738 17.5003 21.3738 17.1621V9.80092C21.3738 9.46267 21.0986 9.18749 20.7604 9.18749H4.23872C3.90048 9.18749 3.62529 9.46267 3.62529 9.80092V17.1621C3.62529 17.5003 3.90048 17.7755 4.23872 17.7755H20.7604Z" fill="#2E2A2A"/>
</svg>
